<?xml version="1.0" encoding="iso-8859-1"?>
<!-- Generator: Adobe Illustrator 19.0.0, SVG Export Plug-In . SVG Version: 6.00 Build 0)  -->
<svg version="1.1" id="Capa_1" xmlns="http://www.w3.org/2000/svg" xmlns:xlink="http://www.w3.org/1999/xlink" x="0px" y="0px"
	 viewBox="0 0 512 512" style="enable-background:new 0 0 512 512;" xml:space="preserve">
<polygon style="fill:#FF623F;" points="361.466,339.46 150.53,339.46 93.05,461.603 158.056,462.463 200.133,512 256,393.297 
	311.867,512 353.944,462.463 418.95,461.603 "/>
<polygon style="fill:#E70020;" points="361.466,339.46 256,358.069 256,393.297 311.867,512 353.944,462.463 418.95,461.603 "/>
<polygon style="fill:#FFB74D;" points="415.864,196.728 443.094,257.524 385.334,290.694 371.63,355.877 305.402,348.762 
	256,393.457 206.598,348.762 140.37,355.877 126.666,290.694 68.906,257.524 96.136,196.728 68.906,135.933 126.666,102.763 
	140.37,37.58 206.598,44.695 256,0 305.402,44.695 371.63,37.58 385.334,102.763 443.094,135.933 "/>
<circle style="fill:#FFDA2D;" cx="255.995" cy="196.728" r="112.063"/>
<polygon style="fill:#FF9800;" points="415.864,196.728 443.094,257.524 385.334,290.694 371.63,355.877 305.402,348.762 
	256,393.457 256,0 305.402,44.695 371.63,37.58 385.334,102.763 443.094,135.933 "/>
<path style="fill:#FDBF00;" d="M256,308.796V84.661c61.895,0,112.067,50.172,112.067,112.067
	C368.067,258.624,317.895,308.796,256,308.796z"/>
<g>
</g>
<g>
</g>
<g>
</g>
<g>
</g>
<g>
</g>
<g>
</g>
<g>
</g>
<g>
</g>
<g>
</g>
<g>
</g>
<g>
</g>
<g>
</g>
<g>
</g>
<g>
</g>
<g>
</g>
</svg>
